<svg width="163" height="59" viewBox="0 0 163 59" fill="none" xmlns="http://www.w3.org/2000/svg">
<g id="CAD.">
<path d="M37.3057 37.6344H48.7275C46.4267 50.0423 37.8809 58.2594 25.2266 58.2594C10.9288 58.2594 0 48.481 0 29.746C0 11.2575 9.77837 0 25.3909 0C39.0313 0 47.6593 8.71015 48.7275 19.7211H37.3057C35.7445 13.5583 30.8964 9.86055 25.4731 9.86055C16.0234 9.86055 11.5861 17.1738 11.5861 29.0886C11.5861 41.1678 16.0234 48.3167 24.8979 48.3167C31.6359 48.3167 35.7445 44.4546 37.3057 37.6344Z" fill="white"/>
<path d="M79.0041 35.7445L72.1839 14.0513H72.1017L65.1172 35.7445H79.0041ZM98.15 56.3695H85.7421L82.2909 45.112H62.159L58.2969 56.3695H46.2178L65.6924 1.80777H78.9219L98.15 56.3695Z" fill="white"/>
<path d="M112.257 47.0841H121.706C131.649 47.0841 135.922 40.8391 135.922 28.5134C135.922 16.1877 131.649 11.2575 120.72 11.2575H112.257V47.0841ZM124.007 56.3695H101.164V1.80777H122.282C137.072 1.80777 147.59 11.9148 147.59 28.5134C147.59 45.112 138.141 56.3695 124.007 56.3695Z" fill="white"/>
<path d="M162.999 56.3695H151.577V45.2763H162.999V56.3695Z" fill="#37C0F6"/>
</g>
</svg>
