<svg width="162" height="12" viewBox="0 0 162 12" fill="none" xmlns="http://www.w3.org/2000/svg">
<g id="Consulting &#38; Audit">
<path d="M7.33797 7.94168H9.58462C9.13205 10.3823 7.45111 11.9986 4.96202 11.9986C2.14967 11.9986 0 10.0752 0 6.39004C0 2.75338 1.92339 0.539062 4.99434 0.539062C7.67739 0.539062 9.3745 2.25233 9.58462 4.41817H7.33797C7.03087 3.20595 6.07726 2.47861 5.01051 2.47861C3.15177 2.47861 2.27897 3.91711 2.27897 6.26074C2.27897 8.63669 3.15177 10.0429 4.89737 10.0429C6.22273 10.0429 7.03087 9.28321 7.33797 7.94168Z" fill="white"/>
<path d="M16.2229 10.0752C17.8392 10.0752 19.1322 8.94379 19.1322 6.40621C19.1322 3.86863 18.0978 2.5271 16.2229 2.5271C14.3318 2.5271 13.2812 3.86863 13.2812 6.40621C13.2812 8.94379 14.3642 10.0752 16.2229 10.0752ZM16.2229 11.9986C12.9257 11.9986 11.0669 9.97821 11.0669 6.35772C11.0669 2.72106 12.9257 0.539062 16.2229 0.539062C19.5201 0.539062 21.3465 2.72106 21.3465 6.40621C21.3465 10.0914 19.5201 11.9986 16.2229 11.9986Z" fill="white"/>
<path d="M31.9228 11.6268H29.8539L25.2636 4.41817V11.6268H23.1786V0.894647H25.5546L29.8216 7.79622V0.894647H31.9228V11.6268Z" fill="white"/>
<path d="M42.0933 4.06258H39.9598C39.8466 2.9635 39.1839 2.43013 37.8262 2.43013C36.5655 2.43013 35.9029 2.88269 35.9029 3.69083C35.9029 4.36968 36.3716 4.75759 37.5676 5.04852C38.7799 5.33945 39.9598 5.63038 40.7517 5.98597C41.6892 6.40621 42.4327 7.06889 42.4327 8.5882C42.4327 10.948 40.6548 11.9986 38.1495 11.9986C35.4988 11.9986 33.6562 10.8187 33.6077 8.41041H35.7736C35.8059 9.50949 36.7272 10.1883 38.1657 10.1883C39.491 10.1883 40.2507 9.62263 40.2507 8.66902C40.2507 8.03866 39.9274 7.60226 38.5859 7.31133C37.2605 7.0204 36.4039 6.82644 35.6443 6.48702C34.4967 5.96981 33.8502 5.19399 33.8502 3.8363C33.8502 1.91291 35.1594 0.539062 37.7778 0.539062C40.4931 0.539062 42.0124 2.00989 42.0933 4.06258Z" fill="white"/>
<path d="M50.4964 8.05482V0.894647H52.7916V8.05482C52.7916 10.6571 51.1915 11.9986 48.3791 11.9986C45.7769 11.9986 44.1444 10.7702 44.1444 8.18413V0.894647H46.4234V7.97401C46.4234 9.29937 47.1346 10.1398 48.3468 10.1398C49.7853 10.1398 50.4964 9.461 50.4964 8.05482Z" fill="white"/>
<path d="M62.3336 11.6268H54.7694V0.894647H57.016V9.67112H62.3336V11.6268Z" fill="white"/>
<path d="M66.2574 11.6268H64.0108V2.76955H60.7782V0.894647H69.5062V2.76955H66.2574V11.6268Z" fill="white"/>
<path d="M73.436 11.6268H71.1894V0.894647H73.436V11.6268Z" fill="white"/>
<path d="M84.1028 11.6268H82.0339L77.4436 4.41817V11.6268H75.3586V0.894647H77.7346L82.0016 7.79622V0.894647H84.1028V11.6268Z" fill="white"/>
<path d="M95.9219 11.6268H94.0631L94.0147 10.5601C93.4974 11.4652 92.2691 11.9986 90.7982 11.9986C87.8243 11.9986 85.9332 9.23472 85.9332 6.24458C85.9332 3.07664 87.7434 0.539062 91.2185 0.539062C93.7722 0.539062 95.7441 2.05838 95.9057 4.20805H93.6429C93.5298 3.20595 92.4469 2.3978 91.2185 2.3978C89.4244 2.3978 88.2283 3.78781 88.2283 6.34155C88.2283 8.10331 89.1173 10.1075 91.2023 10.1075C92.6731 10.1075 93.8207 8.99227 93.8207 7.65075H91.4448V5.85667H95.9219V11.6268Z" fill="white"/>
<path d="M108.275 8.36192V5.46876H110.295V8.36192C110.295 10.5439 108.824 11.9986 106.675 11.9986C104.234 11.9986 102.828 10.5439 102.828 8.63669C102.828 7.63459 103.377 6.47086 104.121 6.1476C103.28 5.7112 102.876 4.95154 102.876 3.90095C102.876 2.10687 104.525 0.894647 106.917 0.894647V2.65641C105.462 2.65641 104.945 3.09281 104.945 4.1434C104.945 5.04852 105.511 5.46876 106.917 5.46876V6.98807C105.64 6.98807 104.881 7.52145 104.881 8.60436C104.881 9.49332 105.43 10.2691 106.658 10.2691C107.741 10.2691 108.275 9.60647 108.275 8.36192Z" fill="white"/>
<path d="M123.402 7.56994L122.061 3.30292H122.045L120.671 7.56994H123.402ZM127.168 11.6268H124.728L124.049 9.41251H120.089L119.329 11.6268H116.953L120.784 0.894647H123.386L127.168 11.6268Z" fill="white"/>
<path d="M134.175 8.05482V0.894647H136.47V8.05482C136.47 10.6571 134.87 11.9986 132.057 11.9986C129.455 11.9986 127.823 10.7702 127.823 8.18413V0.894647H130.102V7.97401C130.102 9.29937 130.813 10.1398 132.025 10.1398C133.464 10.1398 134.175 9.461 134.175 8.05482Z" fill="white"/>
<path d="M140.63 9.80042H142.488C144.444 9.80042 145.285 8.57204 145.285 6.1476C145.285 3.72316 144.444 2.75338 142.294 2.75338H140.63V9.80042ZM142.941 11.6268H138.448V0.894647H142.602C145.511 0.894647 147.58 2.88269 147.58 6.1476C147.58 9.41251 145.721 11.6268 142.941 11.6268Z" fill="white"/>
<path d="M151.667 11.6268H149.42V0.894647H151.667V11.6268Z" fill="white"/>
<path d="M158.761 11.6268H156.515V2.76955H153.282V0.894647H162.01V2.76955H158.761V11.6268Z" fill="white"/>
</g>
</svg>
