<svg xmlns="http://www.w3.org/2000/svg" width="1037" height="1037" viewBox="0 0 1037 1037" fill="none">
<path d="M1.40275 888.517L0 889.92V887.176L1.40275 888.517ZM591.474 101.102L642.217 50.3682H691.618L741.934 0H739.19L690.764 48.4169H641.363L593.364 96.407V49.7584L643.193 0H640.448L592.449 47.9901L544.451 0H541.706L591.474 49.7584V101.102ZM542.133 99.151L592.449 149.458L642.217 99.6998H691.618L740.592 50.7341L791.335 0H788.591L740.592 47.9901L690.825 97.7485H641.424L592.449 146.714L544.024 98.2973V48.9047L495.111 0H492.366L542.133 49.7584V99.151ZM1.40275 148.117L50.3771 99.151V49.7584L100.144 0H97.3998L48.4255 48.9657V98.3583L0 146.714V149.458L48.4255 197.875V247.268L96.424 295.258H49.7672L0 245.438V248.182L47.9985 296.172L0 344.163V346.907L49.4013 297.514L49.8282 297.087H101.12L50.3771 246.353V196.96L1.40275 148.117ZM988.392 543.989V493.255L939.417 444.289L988.392 395.323V345.931L1036.82 297.575V294.831L987.843 245.865H938.441L888.674 196.107L838.907 245.865H789.506L739.19 296.172L740.592 297.575L790.359 247.817H839.761L888.735 198.851L937.71 247.817H987.111L1035.54 296.233L986.562 345.199V394.592L938.136 443.009L936.734 444.411L938.136 445.814L986.562 494.231V544.172H988.392V543.989ZM1036.82 146.714L1035.41 148.117L1036.82 149.519V146.714ZM986.501 98.2973L935.758 149.031H987.05L987.477 149.458L1036.88 198.851V196.107L988.879 148.117L1036.88 100.127V97.3826L987.111 147.141H940.515L988.514 99.151V49.7584L1036.82 1.40251V0H1035.41L986.44 48.9657V98.2973H986.501ZM1036.82 492.279L988.819 444.289L1036.82 396.299V393.555L987.416 442.948L986.013 444.35L987.416 445.753L1036.82 495.145V492.279ZM1036.82 591.003L1035.41 592.406L1036.82 593.808V591.003ZM592.449 1.40251L593.852 0H591.108L592.449 1.40251ZM840.31 987.668V938.276L890.077 888.517L888.674 887.115L838.358 937.422V986.815L788.591 1036.63H791.335L840.31 987.668ZM986.501 839.552V790.159L936.734 740.401L888.735 692.411L887.759 691.435L838.968 642.652H789.567L740.592 593.686L691.618 642.652H642.217L591.474 693.386V642.103L542.682 593.321H496.086L544.085 641.311V690.703L592.51 739.12L641.485 690.154H690.886L739.312 641.737L740.714 640.335L742.117 641.737L790.542 690.154H839.944L888.918 739.12L890.321 740.523L939.295 789.488V838.881L987.721 887.298L989.123 888.7L987.721 890.103L939.295 938.52V987.912L890.321 1036.88H887.576L937.344 987.12V937.727L986.318 888.761L937.344 839.796V790.403L888.918 741.986L839.944 790.952H790.542L739.799 841.686V790.403L739.373 789.976L690.947 741.559H644.351L692.35 789.549V838.942L740.775 887.359L789.75 838.393H839.151L889.894 787.659V838.942L890.321 839.369L938.319 887.359L939.722 888.761L938.319 890.164L889.894 938.581V987.973L840.92 1036.94H838.175L887.942 987.181V937.788L936.917 888.822L888.918 840.832L840.92 888.822L839.944 889.798L791.152 938.581V987.973L742.178 1036.94H739.433L789.201 987.181V937.788L837.199 889.798H790.604L742.178 938.215L741.751 938.642V987.181L742.178 987.607L741.751 988.034V988.583H741.202L692.777 1037H690.032L739.799 987.242V940.654L691.801 988.644H642.4L593.852 1036.63H591.108L542.682 988.217H493.281L444.307 939.252L442.904 937.849L394.905 889.859L394.478 889.432H343.186L393.929 838.698V789.305L442.904 740.34L393.929 691.374V641.981L345.138 593.199L344.162 592.223L296.164 544.233L246.397 494.474H196.995L148.021 445.509L99.5954 493.926V543.318L50.6211 592.284L99.5954 641.25V690.642L148.021 739.059L196.446 690.642V641.25L244.445 593.26H197.849L149.058 642.042V691.984H147.106V642.042L97.3388 592.284L147.106 542.526V491.243L197.849 541.977H247.25L296.225 590.942L346.541 641.25V690.642L396.308 740.401L346.541 790.159V839.552L297.566 888.517L345.992 936.934H395.393L444.368 985.9L445.77 987.303L495.172 1036.7H492.427L444.429 988.705L443.026 987.303L394.6 938.886H345.199L296.225 889.92L247.25 938.886H197.849L149.058 987.668L148.082 988.644L100.144 1036.63H97.3998L146.801 987.242L147.228 986.815V937.422L196.202 888.456L148.204 840.466L99.2295 889.432L50.4381 938.215V987.607L1.40275 1036.63H0V1035.23L48.4255 986.815V937.422L96.424 889.432H49.7672L0 939.252V936.508L48.9744 887.542H98.3756L98.8026 887.115L148.204 837.722L197.971 887.481H247.921V889.432H197.971L149.18 938.215V984.802L197.178 936.812H246.579L295.005 888.396L246.579 839.979H197.178L148.204 791.013L99.2295 839.979H48.4255V838.027H98.3756L146.801 789.61L148.204 788.208L149.607 789.61L198.032 838.027H247.433L296.408 886.993L344.833 838.576V789.183L393.807 740.218L344.833 691.252V641.859L296.408 593.443L247.982 641.859V691.252L199.984 739.242H246.579L295.371 690.459V640.518H297.323V690.459L345.748 738.876L347.151 740.279L297.749 789.671L297.323 790.098V841.503L246.579 790.769H197.178L148.204 741.803L99.2295 790.769H49.8282L0 840.527V837.783L48.9744 788.818H98.3756L146.801 740.401L97.8267 691.435V642.042L49.4013 593.747L47.9985 592.345L97.7657 542.587V493.194L148.082 442.887L197.849 492.645H247.25L296.225 541.611L345.992 591.369H395.393L445.343 641.311V690.703L494.135 739.486H540.731L492.732 691.496V642.103L444.307 593.686L442.904 592.284L394.478 543.867H345.077L296.103 494.901L246.701 445.509L246.275 445.082H196.873L147.899 396.116L99.9004 444.106L50.1332 493.865V543.257L1.1588 592.223L50.1332 641.189V690.581L100.876 741.315H49.7672L0 791.196V788.452L47.9985 740.462L0 692.472V689.728L49.7672 739.486H96.363L48.3645 691.496V642.103L0 593.747V591.003L48.4255 542.587V493.194L96.424 445.204H49.7672L0 495.023V492.279L48.9744 443.314H98.3756L98.8026 442.887L147.228 394.47V347.882L99.2295 395.872H49.8282L0 445.631V442.887L48.9744 393.921H98.3756L149.119 343.187V394.47L197.91 443.253H244.506L196.507 395.263V345.87L148.082 297.453L99.1075 346.419H49.7062L0 396.299V393.555L48.9744 344.589H98.3756L146.801 296.172L97.8267 247.207V197.814L49.4013 149.458L47.9985 148.056L49.4013 146.653L97.8267 98.2363V48.8438L146.74 0H149.485L99.7174 49.7584V99.151L50.743 148.117L99.7174 197.082V246.475L148.143 294.892L198.459 345.199V394.592L248.226 444.35L296.225 492.34L345.992 542.099H395.393L444.368 591.064L494.684 641.372V690.764L545.427 741.498H494.135L445.343 790.281V836.869L493.342 788.879H542.743L591.169 740.462L542.194 691.496V642.103L493.403 593.321L444.429 544.355L394.661 494.596H345.26L296.286 445.631L245.97 395.323V345.931L197.544 297.514L147.228 247.207V197.814L98.8026 149.397L97.3998 147.995L98.8026 146.592L147.228 98.1754V48.7828L196.141 0H198.886L149.119 49.7584V96.346L197.117 48.3559H246.518L294.883 0H297.627L346.602 48.9657V98.3583L395.027 146.775L396.43 148.178L395.027 149.58L346.602 197.997V247.39L297.627 296.355L346.053 344.772H395.454L443.453 392.762V346.175L395.027 297.758L394.6 297.331H343.308L394.051 246.597V197.204L443.026 148.239L394.051 99.273V49.8804L344.223 0H346.968L395.942 48.9657V98.3583L444.368 146.775L494.135 196.534H543.536L591.535 244.524V197.936L543.109 149.519L542.682 149.092H493.281L443.331 99.151V49.7584L393.625 0H396.369L445.343 48.9657V98.3583L494.135 147.141H540.731L492.732 99.151V49.7584L442.965 0H445.709L494.684 48.9657V98.3583L543.475 147.141L592.449 196.107L641.424 147.141H690.825L691.252 146.714L740.653 97.3217L789.628 48.3559H839.029L887.332 0H890.077L839.761 50.3072H790.359L740.592 100.066L692.594 148.056L642.827 197.814V247.207L593.852 296.172L642.278 344.589H691.679L739.677 392.579V345.992L691.252 297.575L690.825 297.148H639.533L690.276 246.414V197.021L740.592 146.714L789.567 97.7485H838.968L887.759 48.9657L936.673 0H939.417L889.65 49.7584V99.151L839.7 149.092H790.299L741.507 197.875V244.463L789.506 196.473H838.907L888.674 146.714L937.1 98.2973V48.9047L986.074 0H988.819L939.051 49.7584V99.151L890.077 148.117L938.502 196.534H987.904L1036.88 245.499V248.243L987.111 198.485H937.71L888.735 149.519L839.761 198.485H790.359L741.568 247.268L692.594 296.233L740.592 344.224L789.567 295.258H838.968L839.395 294.831L888.796 245.438L938.197 294.831L938.624 295.258H989.916L939.173 345.992V395.384L890.199 444.35L939.173 493.316V542.708L988.94 592.467L1036.94 640.457V643.201L987.538 593.808L937.222 543.501V494.109L888.796 445.692L839.822 494.657H790.421L739.677 545.392V494.109L690.886 445.326H644.29L692.289 493.316V542.708L740.714 591.125L789.689 542.16H839.09L889.833 491.426V542.708L939.6 592.467L988.575 641.433V690.825L1037 739.242V741.986L986.684 691.679V642.286L938.258 593.869L888.857 544.477L840.859 592.467L889.833 641.433V690.825L890.26 691.252L938.258 739.242L988.575 789.549V838.942L1037 887.359V890.103L988.575 938.52V987.912L939.6 1036.88H936.856L986.623 987.12V937.727L1035.6 888.761L986.501 839.552ZM739.616 246.414V197.021L789.567 147.08H838.968L887.759 98.2973V51.7097L839.761 99.6998H790.359L740.592 149.458L692.167 197.875V247.268L644.168 295.258H690.764L739.616 246.414ZM248.226 740.462L296.225 788.452L344.223 740.462L296.225 692.472L248.226 740.462ZM196.141 592.345L148.143 544.355L100.144 592.345L148.143 640.335L196.141 592.345ZM149.485 740.462L197.91 788.879H247.311L295.31 836.869V790.281L246.518 741.498H195.166L245.909 690.764V641.372L294.883 592.406L246.458 543.989H197.056L149.058 495.999V542.587L197.849 591.369H249.141L198.398 642.103V691.496L149.485 740.462ZM442.965 839.186L443.392 838.759V789.366L492.366 740.401L443.392 691.435V642.042L394.6 593.26H348.005L396.003 641.25V690.642L444.429 739.059L445.831 740.462L396.064 790.22V839.613L348.066 887.603H394.661L442.965 839.186ZM740.592 788.452L788.591 740.462L740.592 692.472L692.594 740.462L740.592 788.452ZM593.852 740.462L642.827 789.427V838.82L693.57 889.554H642.278L641.851 889.981L593.852 937.971L592.449 939.373L591.047 937.971L542.621 889.554H492.671V887.603H542.621L591.413 838.82V792.232L543.414 840.222H494.013L445.587 888.639L494.013 937.056H543.414L592.388 986.022L641.363 937.056H690.764L739.19 888.639L690.215 839.674V790.281L639.472 739.547H690.764L691.191 739.12L739.19 691.13L740.592 689.728L741.995 691.13L790.421 739.547H840.371V741.498H790.421L741.629 790.281V836.869L789.628 788.879H839.029L887.454 740.462L839.029 692.045H789.628L740.653 643.079L691.679 692.045H642.278L593.852 740.462ZM544.451 888.517L592.449 936.508L640.448 888.517L592.449 840.527L544.451 888.517ZM592.449 741.803L543.475 790.769H494.074L445.282 839.552L444.307 840.527L396.308 888.517L444.307 936.508L445.709 937.91L494.135 986.327H543.536L592.51 1035.29L641.485 986.327H690.886L739.677 937.544L740.653 936.568L789.628 887.603H839.029L839.456 887.176L887.881 838.759V792.171L839.883 840.161H790.482L742.056 888.578L740.653 889.981L691.679 938.947H642.278L593.852 987.364L592.449 988.766L591.047 987.364L542.621 938.947H493.22L444.246 889.981L442.843 888.578L444.246 887.176L493.22 838.21H542.621L593.364 787.476V838.759L593.791 839.186L642.217 887.603H688.812L640.814 839.613V790.22L592.449 741.803ZM889.65 345.931V395.323L839.7 445.265H790.299L789.872 445.692L741.446 494.109V540.696L789.445 492.706H838.846L888.613 442.948L937.039 394.531V345.138L985.037 297.148H938.441L889.65 345.931ZM790.908 345.931V395.323L740.592 445.631L690.825 395.872H641.424L593.425 347.882V394.47L641.851 442.887L642.278 443.314H691.679L740.653 492.279L788.652 444.289L838.419 394.531V345.138L888.735 294.831L890.138 296.233L840.371 345.992V395.384L792.372 443.375H838.968L887.759 394.592V345.199L936.734 296.233L888.735 248.243L840.737 296.233L790.908 345.931ZM592.449 297.575L544.024 345.992V395.384L496.025 443.375H542.621L591.413 394.592V343.309L642.156 394.043H691.557L740.531 443.009L788.957 394.592V345.199L836.955 297.209H790.359L741.568 345.992V397.275L690.825 346.541H641.424L592.449 297.575ZM543.109 445.631L542.682 445.204H491.39L542.133 394.47V345.077L591.108 296.112L542.682 247.695H493.281L445.282 199.705V246.292L493.708 294.709L494.135 295.136H545.427L494.684 345.87V395.263L445.709 444.228L494.135 492.645H543.536L591.535 540.635V494.048L543.109 445.631ZM443.392 246.414V195.131L494.135 245.865H543.536L592.51 294.831L640.936 246.414V197.021L688.934 149.031H642.339L593.547 197.814V249.097L542.804 198.363H493.403L444.429 149.397L396.003 197.814V247.207L348.005 295.197H394.6L443.392 246.414ZM444.368 344.163L492.366 296.172L444.368 248.182L396.369 296.172L444.368 344.163ZM296.225 297.575L245.909 247.268V197.875L195.166 147.141H246.458L246.884 146.714L295.31 98.2973V51.7097L247.311 99.6998H197.91L149.485 148.117L198.459 197.082V246.475L297.201 345.138L345.992 393.921H395.393L444.368 442.887L492.793 394.47V345.077L540.792 297.087H494.196L445.404 345.87V397.153L394.661 346.419H345.26L296.225 297.575ZM248.226 148.117L296.225 196.107L344.223 148.117L296.225 100.127L248.226 148.117ZM592.449 640.335L640.448 592.345L592.449 544.355L591.962 543.867L591.474 543.379L542.682 494.596H493.281L444.307 445.631L394.539 395.872H345.138L297.14 347.882V394.47L345.931 443.253H395.332L444.307 492.218L494.074 541.977H543.475L593.791 592.284L592.388 593.686L542.621 543.928H493.22L444.246 494.962L394.478 445.204H345.077L295.127 395.263V345.87L196.507 247.207V197.814L148.082 149.397L146.679 147.995L148.082 146.592L197.056 97.6265H246.458L297.201 46.8925V98.1754L346.968 147.934L297.201 197.692V247.634H295.249V197.692L246.458 148.909H199.862L247.86 196.9V246.292L296.286 294.709L344.711 246.292V196.9L393.686 147.934L344.711 98.9681V49.5755L296.286 1.15859L247.311 50.1243H197.91L149.119 98.9071L100.144 147.873L149.119 196.839V246.231L197.544 294.648L247.86 344.955V394.348L296.286 442.765L346.053 492.523H395.454L444.429 541.489L493.891 590.942L494.196 591.247H543.597L592.449 640.335ZM739.19 592.345L690.215 543.379V493.987L640.448 444.228L592.449 396.238L544.451 444.228L593.425 493.194V542.587L642.217 591.369H688.812L640.814 543.379V493.987L591.047 444.228L592.449 442.826L642.766 493.133V542.526L693.509 593.26H642.217L641.79 593.686L593.364 642.103V688.691L641.363 640.701H690.764L739.19 592.345ZM887.698 642.103L838.907 593.321H788.957V591.369H838.907L887.698 542.587V495.999L839.7 543.989H790.299L741.873 592.406L790.299 640.823H839.7L887.698 688.813V642.103ZM986.074 740.462L1036.82 791.196V788.452L988.819 740.462L939.051 690.703V641.311L888.735 591.003L887.332 592.406L937.1 642.164V691.557L986.074 740.462ZM345.992 986.327L297.566 937.91L296.164 936.508L294.761 937.91L246.336 986.327H196.934L146.74 1036.63H149.485L197.91 988.217H247.311L296.286 939.252L345.26 988.217H394.661L443.087 1036.63H445.831L395.515 986.327H345.992ZM1036.82 988.644V985.9L986.074 1036.63H988.819L1036.82 988.644ZM296.225 985.9L294.822 987.303L245.421 1036.7H248.165L296.164 988.705L344.162 1036.7H346.907L297.505 987.303L296.225 985.9ZM0 294.831V297.575L1.40275 296.172L0 294.831ZM0 47.9901V50.7341L50.743 0H47.9985L0 47.9901ZM99.7174 987.668V938.276L149.485 888.517L148.082 887.115L97.7657 937.422V986.815L47.9985 1036.63H50.743L99.7174 987.668ZM296.225 1035.23L294.883 1036.63H297.627L296.225 1035.23Z" fill="url(#paint0_radial_269_4504)" fill-opacity="0.1"/>
<defs>
<radialGradient id="paint0_radial_269_4504" cx="0" cy="0" r="1" gradientUnits="userSpaceOnUse" gradientTransform="translate(370 -31.5) rotate(52.0903) scale(1085.58)">
<stop offset="0.772048" stop-color="white"/>
<stop offset="1" stop-color="white" stop-opacity="0"/>
</radialGradient>
</defs>
</svg>