<svg width="49" height="49" viewBox="0 0 49 49" fill="none" xmlns="http://www.w3.org/2000/svg">
<g id="Frame 1410125841">
<path id="Vector" d="M48.9986 24.0657C48.9986 28.8255 47.5872 33.4783 44.9428 37.4358C42.2984 41.3934 38.5399 44.478 34.1424 46.2995C29.745 48.1209 24.9062 48.5975 20.2379 47.6689C15.5697 46.7404 11.2816 44.4484 7.91591 41.0827C4.55026 37.7171 2.25819 33.429 1.32961 28.7607C0.401033 24.0924 0.877617 19.2536 2.69909 14.8562C4.52057 10.4587 7.60512 6.70017 11.5627 4.0558C15.5203 1.41143 20.1732 0 24.9329 0C31.3155 0 37.4367 2.53545 41.9499 7.04865C46.4631 11.5618 48.9986 17.6831 48.9986 24.0657Z" fill="#BDCACF"/>
<path id="Vector_2" d="M36.3389 24.0641C36.3389 26.3203 35.6699 28.5258 34.4164 30.4018C33.1629 32.2778 31.3813 33.74 29.2968 34.6034C27.2123 35.4669 24.9185 35.6928 22.7056 35.2526C20.4927 34.8125 18.4601 33.7259 16.8647 32.1305C15.2693 30.5351 14.1828 28.5025 13.7427 26.2896C13.3025 24.0767 13.5283 21.783 14.3918 19.6985C15.2552 17.614 16.7173 15.8323 18.5933 14.5788C20.4693 13.3253 22.675 12.6563 24.9312 12.6562C27.9567 12.6563 30.8584 13.8582 32.9977 15.9975C35.1371 18.1369 36.3389 21.0385 36.3389 24.0641Z" fill="white"/>
</g>
</svg>
