<?xml version="1.0" standalone="no"?>
<!DOCTYPE svg PUBLIC "-//W3C//DTD SVG 1.1//EN" "http://www.w3.org/Graphics/SVG/1.1/DTD/svg11.dtd" >
<svg xmlns="http://www.w3.org/2000/svg">
<metadata>Generated by IcoMoon</metadata>
<defs>
<font id="icomoon" horiz-adv-x="1024">
<font-face units-per-em="1024" ascent="960" descent="-64" />
<missing-glyph horiz-adv-x="1024" />
<glyph unicode="&#x20;" horiz-adv-x="512" d="" />
<glyph unicode="&#xe900;" glyph-name="fb" d="M643.799 782.8c-49.5 0-96.973-19.685-131.976-54.726-35.002-35.040-54.666-82.565-54.666-132.119v-104.027h-99.878c-5.015 0-9.080-4.070-9.080-9.090v-137.356c0-5.023 4.065-9.088 9.080-9.088h99.878v-281.784c0-5.023 4.065-9.088 9.080-9.088h137.206c5.012 0 9.078 4.065 9.078 9.088v281.784h100.767c4.163 0 7.798 2.836 8.806 6.881l34.304 137.358c1.428 5.737-2.903 11.295-8.812 11.295h-135.066v104.027c0 8.304 3.297 16.267 9.165 22.139 5.862 5.872 13.819 9.17 22.113 9.17h104.919c5.018 0 9.083 4.070 9.083 9.090v137.356c0 5.020-4.065 9.090-9.083 9.090h-104.919z" />
<glyph unicode="&#xe901;" glyph-name="hero-arrow-left" d="M449.945 96.233c-0.696-0.7-22.018-6.042-47.378-11.873-25.363-5.825-46.389-9.705-46.727-8.624-0.335 1.087-2.959 18.688-5.829 39.122-5.764 41.028-19.721 88.934-34.635 118.892-46.486 93.372-129.889 155.199-231.046 171.265l-25.759 4.093v82.497l23.347 3.917c152.963 25.663 252.687 140.034 271.342 311.191 1.217 11.177 2.673 20.318 3.233 20.318 5.159 0 90.64-20.601 92.256-22.232 1.169-1.18 0.3-11.658-1.935-23.28-24.735-128.692-95.56-233.411-187.468-277.197l-22.047-10.503 740.035-1.344v-83.478l-739.703-1.348 27.833-14.102c72.206-36.581 129.374-108.34 163.039-204.659 9.594-27.443 24.069-90.004 21.441-92.655z" />
<glyph unicode="&#xe902;" glyph-name="hero-arrow-right" d="M586.058 96.233c0.694-0.7 22.016-6.042 47.377-11.873 25.361-5.825 46.387-9.705 46.723-8.624 0.336 1.087 2.964 18.688 5.831 39.122 5.763 41.028 19.723 88.934 34.634 118.892 46.484 93.372 129.889 155.199 231.049 171.265l25.759 4.093v82.497l-23.347 3.917c-152.963 25.663-252.689 140.034-271.343 311.191-1.217 11.177-2.674 20.318-3.237 20.318-5.154 0-90.635-20.601-92.251-22.232-1.172-1.18-0.302-11.658 1.934-23.28 24.735-128.692 95.556-233.411 187.466-277.197l22.050-10.503-740.036-1.344v-83.478l739.701-1.348-27.83-14.102c-72.209-36.581-129.377-108.34-163.044-204.659-9.591-27.443-24.064-90.004-21.436-92.655z" />
<glyph unicode="&#xe904;" glyph-name="linkedin" d="M277.243 864.8c-51.276 0-92.843-40.487-92.843-90.431s41.567-90.431 92.843-90.431c51.275 0 92.842 40.487 92.842 90.431s-41.567 90.431-92.842 90.431zM189.861 609.465c-3.016 0-5.462-2.381-5.462-5.319v-553.227c0-2.939 2.445-5.32 5.462-5.32h174.762c3.016 0 5.462 2.381 5.462 5.32v553.227c0 2.938-2.445 5.319-5.462 5.319h-174.762zM473.851 609.465c-3.016 0-5.462-2.381-5.462-5.319v-553.227c0-2.939 2.445-5.32 5.462-5.32h174.761c3.016 0 5.463 2.381 5.463 5.32v297.892c0 21.161 8.632 41.457 23.992 56.422 15.365 14.966 36.198 23.368 57.928 23.368 21.724 0 42.563-8.402 57.928-23.368 15.36-14.966 23.992-35.261 23.992-56.422v-297.892c0-2.939 2.447-5.32 5.463-5.32h174.761c3.016 0 5.463 2.381 5.463 5.32v366.822c0 103.272-92.216 184.065-197.709 174.723-32.532-2.881-64.701-10.759-94.735-23.297l-57.083-23.827v58.806c0 2.938-2.447 5.319-5.463 5.319h-174.761z" />
<glyph unicode="&#xe905;" glyph-name="services-chat-left-dots-fill" horiz-adv-x="1008" d="M252.657 779.631c-92.801 0-168.042-75.24-168.042-168.042v-504.123c0-37.431 45.749-56.671 72.215-30.205l156.236 114.225h443.712c92.801 0 168.042 75.24 168.042 168.042v252.062c0 92.801-75.24 168.042-168.042 168.042h-504.122zM336.677 527.57c23.19 0 42.011-18.821 42.011-42.011s-18.821-42.011-42.011-42.011c-23.19 0-42.011 18.821-42.011 42.011s18.821 42.011 42.011 42.011zM504.719 527.57c23.188 0 42.009-18.821 42.009-42.011s-18.821-42.011-42.009-42.011c-23.19 0-42.011 18.821-42.011 42.011s18.821 42.011 42.011 42.011zM672.759 527.57c23.19 0 42.011-18.821 42.011-42.011s-18.821-42.011-42.011-42.011c-23.19 0-42.011 18.821-42.011 42.011s18.821 42.011 42.011 42.011z" />
<glyph unicode="&#xe906;" glyph-name="services-check-circle-fill" horiz-adv-x="1008" d="M504.719 861.354c-232.023 0-420.103-188.080-420.103-420.103 0-232.021 188.081-420.102 420.103-420.102s420.102 188.080 420.102 420.102c0 232.023-188.080 420.103-420.102 420.103zM672.759 567.282c10.755 0 21.972-3.612 30.205-11.804 16.384-16.427 16.384-43.985 0-60.41l-157.538-156.236c-48.353-48.312-122.248-41.088-160.184 15.795l-42.011 63.014c-12.855 19.283-7.478 46.17 11.847 59.067 19.283 12.855 46.168 7.478 59.066-11.847l42.011-63.015c8.485-12.729 19.366-14.746 30.164-3.907l156.236 157.538c8.235 8.192 19.45 11.804 30.205 11.804z" />
<glyph unicode="&#xe907;" glyph-name="services-file-earmark-medical-fill" horiz-adv-x="1008" d="M318.872 861.354c-81.963 0-149.641-62.175-149.641-140.481v-559.241c0-78.308 67.679-140.483 149.641-140.483h372.881c81.963 0 149.641 62.176 149.641 140.483 0 27.432 0 330.117 0 406.953 0 149.682-144.472 292.769-294.071 292.769-177.032 0-177.451 0-228.451 0zM589.332 766.831c73.897-19.62 137.711-82.593 157.538-156.236-27.853-0.421-52.47-1.555-73.517-1.303-61.672 0.756-84.609 12.77-85.323 84.020-0.085 7.352 0.923 40.75 1.301 73.518zM421.293 693.313c23.19 0 42.009-18.821 42.009-42.011 23.19 0 42.011-18.82 42.011-42.009s-18.821-42.011-42.011-42.011c0-23.19-18.82-42.011-42.009-42.011s-42.011 18.821-42.011 42.011c-23.19 0-42.011 18.821-42.011 42.011s18.821 42.009 42.011 42.009c0 23.19 18.821 42.011 42.011 42.011zM379.282 441.251h252.062c23.19 0 42.011-18.821 42.011-42.011s-18.821-42.009-42.011-42.009h-252.062c-23.19 0-42.011 18.82-42.011 42.009s18.821 42.011 42.011 42.011zM379.282 273.21h252.062c23.19 0 42.011-18.82 42.011-42.009s-18.821-42.011-42.011-42.011h-252.062c-23.19 0-42.011 18.821-42.011 42.011s18.821 42.009 42.011 42.009z" />
<glyph unicode="&#xe908;" d="M214.934 321.301c0-58.598-47.32-105.959-105.867-105.959s-105.867 47.361-105.867 105.959c0 58.6 47.319 105.96 105.867 105.96h105.867v-105.96zM267.867 321.301c0 58.6 47.32 105.96 105.867 105.96s105.867-47.361 105.867-105.96v-264.899c0-58.598-47.32-105.959-105.867-105.959s-105.867 47.361-105.867 105.959v264.899z" />
<glyph unicode="&#xe909;" d="M373.738 746.787c-58.549 0-105.867 47.361-105.867 105.961s47.318 105.96 105.867 105.96c58.548 0 105.866-47.361 105.866-105.96v-105.961h-105.866zM373.738 693.005c58.548 0 105.866-47.361 105.866-105.96s-47.318-105.959-105.866-105.959h-265.471c-58.548 0-105.867 47.361-105.867 105.959 0 58.6 47.319 105.96 105.867 105.96h265.471z" />
<glyph unicode="&#xe90a;" d="M798.113 587.045c0 58.6 47.32 105.96 105.867 105.96s105.867-47.361 105.867-105.96c0-58.598-47.32-105.959-105.867-105.959h-105.867v105.959zM745.181 587.045c0-58.598-47.32-105.959-105.867-105.959s-105.867 47.361-105.867 105.959v265.703c0 58.599 47.32 105.96 105.867 105.96s105.867-47.361 105.867-105.96v-265.703z" />
<glyph unicode="&#xe90b;" d="M639.313 162.362c58.548 0 105.867-47.361 105.867-105.96 0-58.598-47.32-105.959-105.867-105.959s-105.867 47.361-105.867 105.959v105.96h105.867zM639.313 215.342c-58.548 0-105.867 47.361-105.867 105.959 0 58.6 47.32 105.96 105.867 105.96h265.47c58.549 0 105.867-47.361 105.867-105.96 0-58.598-47.318-105.959-105.867-105.959h-265.47z" />
<glyph unicode="&#xe90c;" horiz-adv-x="1008" d="M5.908 366.546c16.706-109.080 67.806-207.349 141.508-281.050l171.971 171.972c0 173.937 90.408 342.96 251.57 436.317l-565.050-327.239z" />
<glyph unicode="&#xe90d;" horiz-adv-x="1008" d="M319.387 257.446c-85.495 0-171.971 21.619-251.57 67.806-21.619 12.775-42.256 26.533-61.91 42.255 16.706-109.080 67.806-207.349 141.508-281.050l171.971 170.989z" />
<glyph unicode="&#xe90e;" horiz-adv-x="1008" d="M319.387 257.476l-171.972-171.972c74.686-74.684 171.972-125.785 281.051-141.509l326.254 565.051c-92.373-161.162-261.397-251.57-435.334-251.57z" />
<glyph unicode="&#xe90f;" horiz-adv-x="1008" d="M387.193 4.922c-46.187 79.599-67.806 166.075-67.806 251.572l-171.972-171.972c74.686-74.686 171.972-125.785 281.051-141.509-14.741 19.654-28.499 40.29-41.274 61.909z" />
<glyph unicode="&#xe910;" horiz-adv-x="1008" d="M960.096 917.846l-388.165-225.038c-161.162-93.356-352.788-86.478-503.14 0-43.239-73.701-67.806-160.179-67.806-251.57 0-25.55 1.965-50.118 5.896-74.684 19.654-15.724 40.29-29.482 61.91-42.257 79.598-46.187 166.076-67.806 251.57-67.806l650.544 650.545c-3.931 3.931-6.878 7.862-10.809 10.81z" />
<glyph unicode="&#xe911;" horiz-adv-x="1008" d="M67.816 324.288c79.598-46.186 166.075-67.805 251.57-67.805 0 173.937 90.408 342.96 251.57 436.317l-566.033-326.256c20.637-14.741 41.273-29.48 62.893-42.257z" />
<glyph unicode="&#xe912;" horiz-adv-x="1008" d="M67.806 692.801c-43.239-73.703-67.806-160.18-67.806-251.572 0-25.55 1.965-50.116 5.896-74.684l566.033 326.256c-162.145-92.374-353.772-86.478-504.123 0z" />
<glyph unicode="&#xe913;" horiz-adv-x="1008" d="M970.913 908.011c-2.948 2.948-6.878 6.879-10.81 9.827-4.912 3.931-9.826 7.862-15.722 10.81-18.671 10.81-40.29 16.706-62.893 16.706h-377.355c-186.713 0-348.857-101.218-436.317-251.57 150.352-86.478 341.978-93.356 503.14 0-161.162-93.356-251.57-262.38-251.57-436.317 173.937 0 342.961 90.408 436.317 251.57l224.054 388.165c-2.948 3.931-5.897 7.862-8.844 10.81z" />
<glyph unicode="&#xe914;" horiz-adv-x="1008" d="M571.939 692.827l388.164 224.055c-4.912 3.931-9.826 7.862-15.722 10.81l-876.565-234.865c150.352-86.476 341.978-92.373 504.123 0z" />
<glyph unicode="&#xe915;" horiz-adv-x="1008" d="M881.488 945.354h-377.355c-186.713 0-348.857-101.218-436.317-251.57l876.565 234.864c-18.671 9.827-39.307 16.706-62.893 16.706z" />
<glyph unicode="&#xe916;" horiz-adv-x="1008" d="M755.701 509.026l224.054 388.165c-2.948 3.931-5.895 6.879-9.826 10.81l-650.546-650.544c0-85.495 21.621-171.972 67.806-251.57 12.775-21.621 26.533-42.257 42.257-61.911 24.567-3.931 49.135-5.895 74.684-5.895 91.391 0 177.869 24.567 251.57 67.806-86.476 150.352-93.356 341.978 0 503.14z" />
<glyph unicode="&#xe917;" horiz-adv-x="1008" d="M319.384 257.476c0-85.495 21.621-171.972 67.806-251.57 12.775-21.619 26.533-42.257 42.257-61.911l326.254 565.051c-93.356-161.162-262.379-251.57-436.317-251.57z" />
<glyph unicode="&#xe918;" horiz-adv-x="1008" d="M755.701 509.046l-326.254-566.033c24.567-3.931 49.135-5.897 74.684-5.897 91.391 0 177.867 24.568 251.57 67.806-86.478 151.335-93.356 342.961 0 504.123z" />
<glyph unicode="&#xe919;" horiz-adv-x="1008" d="M990.567 881.487c-2.948 5.896-6.878 10.809-10.809 15.723-2.949 3.931-5.897 6.879-9.827 10.81-2.948 2.948-6.88 6.879-10.81 9.827l-387.182-225.038c-161.162-93.356-251.57-262.38-251.57-436.317 173.938 0 342.961 90.408 436.317 251.57-93.356-161.162-86.476-352.787 0-503.14 150.353 87.459 251.57 249.604 251.57 436.317v377.355c-0.981 23.585-6.878 45.204-17.688 62.893z" />
<glyph unicode="&#xe91a;" horiz-adv-x="1008" d="M960.104 917.846l-388.165-225.038c-161.162-93.356-251.57-262.38-251.57-436.317l650.546 650.545c-3.932 3.931-6.88 7.862-10.81 10.81z" />
<glyph unicode="&#xe91b;" horiz-adv-x="1008" d="M319.384 257.456c173.938 0 342.961 90.408 436.317 251.57l224.054 388.165c-2.948 3.931-5.895 6.879-9.826 10.81l-650.546-650.544z" />
<glyph unicode="&#xe91c;" horiz-adv-x="1008" d="M979.763 897.231l-224.054-388.166c-93.357-161.162-86.478-352.787 0-503.14l234.863 876.565c-2.948 4.913-6.878 9.827-10.809 14.74z" />
<glyph unicode="&#xe91d;" horiz-adv-x="1008" d="M755.693 4.912c150.352 87.459 251.57 249.604 251.57 436.317v377.355c0 22.602-5.897 44.222-16.707 62.893l-234.863-876.565z" />
<glyph unicode="&#xe91e;" glyph-name="services-globe-fill" horiz-adv-x="1008" d="M504.062 860.677c-54.319 0-115.57-165.94-123.425-378.092h246.85c-7.855 212.11-69.106 378.092-123.425 378.092zM371.477 839.672c-154.892-51.631-271.512-193.288-286.216-357.087h211.353c4.663 144.474 30.752 272.605 74.862 357.087zM636.646 839.672c44.111-84.483 70.198-212.614 74.862-357.087h210.051c-15.209 165.73-128.509 304.533-284.913 357.087zM86.564 398.564c15.124-168.335 131.995-306.255 286.216-357.088-44.070 84.483-71.502 212.614-76.165 357.088h-210.051zM380.637 398.564c7.855-212.11 69.106-378.092 123.425-378.092s115.57 165.94 123.425 378.092h-246.85zM711.508 398.564c-4.665-144.474-32.097-272.605-76.165-357.088 158.421 53.9 270.755 194.087 286.216 357.088h-210.051z" />
<glyph unicode="&#xe91f;" glyph-name="services-person-fill" horiz-adv-x="1008" d="M504.021 863.323c-116.007 0-210.051-94.044-210.051-210.052 0-116.007 94.044-210.051 210.051-210.051s210.051 94.044 210.051 210.051c0 116.008-94.044 210.052-210.051 210.052zM355.675 388.082c-109.828-30.016-187.735-125.514-187.735-238.934v-84.020c0-23.202 18.807-42.011 42.009-42.011h588.145c23.202 0 42.009 18.809 42.009 42.011v84.020c0 113.42-77.907 208.918-187.735 238.934-9.414 2.576-18.665 1.386-27.566-2.626-38.461-17.332-79.404-26.255-120.78-26.255s-82.319 8.923-120.78 26.255c-8.901 4.013-18.152 5.202-27.566 2.626z" />
<glyph unicode="&#xe920;" glyph-name="you-tube" d="M309.065 692.22l-90.741-7.863c-50.543-4.38-91.891-46.338-100.246-101.724-20.904-138.58-20.904-280.046 0-418.624 8.355-55.388 49.703-97.347 100.246-101.724l90.741-7.864c135.084-11.709 270.785-11.709 405.871 0l90.742 7.864c50.54 4.378 91.889 46.336 100.244 101.724 20.905 138.578 20.905 280.044 0 418.624-8.356 55.387-49.705 97.345-100.244 101.724l-90.742 7.863c-135.086 11.706-270.788 11.706-405.871 0zM431.006 262.518v221.602c0 10.46 10.302 16.921 18.399 11.539l166.721-110.799c7.864-5.228 7.864-17.853 0-23.081l-166.721-110.797c-8.097-5.381-18.399 1.075-18.399 11.535z" />
<glyph unicode="&#xe921;" glyph-name="cloud-check-fill" d="M512.605 789.366c-135.085-1.067-255.574-92.971-288.001-237.312-82.816-34.858-138.667-112.298-138.667-205.354 0-128.426 101.376-240 226.646-240h413.353c116.653 0 213.334 84.608 213.334 192 0 77.44-53.376 142.89-128 173.312 0.086 7.638 0 17.578 0 18.688 1.28 163.668-136.918 299.945-298.666 298.665zM597.936 490.701c10.925 0 22.317-3.67 30.678-11.99 16.64-16.682 16.64-44.672 0-61.354l-128-128c-16.682-16.64-44.672-16.64-61.354 0l-85.334 85.334c-16.64 16.682-16.64 44.669 0 61.354 16.685 16.64 44.672 16.64 61.354 0l54.656-54.656 97.325 97.322c8.362 8.32 19.754 11.99 30.675 11.99z" />
<glyph unicode="&#xe922;" glyph-name="gear-fill" d="M382.595 855.22c-60.502-19.157-112.684-50.518-158.678-93.312-14.208-13.269-18.56-34.901-9.344-52.011 34.176-63.189-1.579-130.774-78.635-134.656-18.901-0.982-35.584-14.934-40.021-33.322-7.637-31.789-10.667-58.413-10.667-93.357 0-29.312 3.157-62.464 9.344-91.987 3.84-18.432 19.883-31.702 38.656-33.366 77.568-6.698 115.968-65.834 81.323-141.312-7.68-16.768-4.181-36.822 9.344-49.322 45.312-41.942 97.366-71.469 158.678-90.669 17.491-5.504 37.248 1.11 48 16 47.443 65.622 116.266 65.878 161.322 0 10.624-15.53 30.080-22.995 48-17.322 59.178 18.602 114.304 50.304 160 91.99 14.080 12.8 17.792 33.578 9.344 50.643-35.498 71.638 5.334 137.43 78.634 138.669 19.456 0.339 36.781 13.139 41.344 32 7.382 30.592 9.344 57.258 9.344 94.675 0 32.173-3.795 63.872-10.666 94.678-4.352 19.456-21.376 33.28-41.344 33.322-72.15 0.128-112.598 71.041-77.312 133.334 9.814 17.365 6.742 38.613-8.022 52.011-46.506 42.24-103.21 75.222-162.643 93.312-18.262 5.547-37.677-1.28-48-17.323-41.216-64-118.189-65.152-158.678-1.323-10.368 16.341-30.89 24.534-49.322 18.646zM511.917 619.232c94.25 0 170.666-76.416 170.666-170.669 0-94.25-76.416-170.666-170.666-170.666s-170.666 76.416-170.666 170.666c0 94.253 76.416 170.669 170.666 170.669z" />
<glyph unicode="&#xe923;" glyph-name="globe-fill" d="M511.907 874c-55.168 0-117.376-168.533-125.354-384h250.707c-7.978 215.424-70.186 384-125.354 384zM377.251 852.667c-157.313-52.437-275.756-196.309-290.689-362.667h214.656c4.736 146.73 31.232 276.864 76.032 362.667zM646.563 852.667c44.8-85.803 71.296-215.937 76.032-362.667h213.331c-15.443 168.32-130.515 309.291-289.363 362.667zM87.885 404.666c15.36-170.963 134.058-311.040 290.687-362.666-44.758 85.802-72.618 215.936-77.354 362.666h-213.333zM386.554 404.666c7.978-215.424 70.186-384 125.354-384s117.376 168.534 125.354 384h-250.707zM722.595 404.666c-4.736-146.73-32.598-276.864-77.357-362.666 160.896 54.742 274.989 197.12 290.688 362.666h-213.331z" />
<glyph unicode="&#xe924;" glyph-name="puzzle-fill" d="M555.27 876.625c-47.13 0-85.334-38.187-85.334-85.333v-42.667h-85.331c-92.37-0.213-170.433-74.837-170.667-170.667v-85.334h-42.667c-47.13 0-85.333-38.186-85.333-85.331 0-47.149 38.204-85.334 85.333-85.334h42.667v-85.334c0.2-93.184 75.648-170.451 170.667-170.666h85.331v42.666c0 47.149 38.205 85.334 85.334 85.334s85.334-38.186 85.334-85.334v-42.666c0 0 42.666 0.256 85.331 0 96.25-0.512 170.39 77.312 170.669 170.666v85.334h-42.669c-47.13 0-85.331 38.186-85.331 85.334 0 47.146 38.202 85.331 85.331 85.331h42.669v85.334c0.426 95.317-78.118 170.411-170.669 170.667-85.331 0.256-85.331 0-85.331 0v42.667c0 47.147-38.205 85.333-85.334 85.333z" />
<glyph unicode="&#xe925;" glyph-name="telephone-fill" d="M295.646 835c-72.021 0-168.021-96-168.021-168.021 0-92.758 96-263.981 192-359.981 10.324-10.323 37.674-37.674 48.001-48 96-96 267.222-192 359.978-192 72.022 0 168.022 96 168.022 168.022 0 71.978-96 167.978-168.022 167.978-23.978 0-110.806-49.664-119.978-48-76.544 13.824-176 115.757-192 192-2.221 10.624 48 96.002 48 119.981 0 72.021-96 168.021-167.98 168.021z" />
<glyph unicode="&#xe926;" glyph-name="advantage-circle" d="M1023.971 457.076c0-99.47-29.495-196.704-84.758-279.408-55.263-82.706-133.808-147.168-225.706-185.233-91.897-38.064-193.018-48.024-290.576-28.618-97.556 19.404-187.168 67.302-257.504 137.638-70.335 70.334-118.235 159.947-137.64 257.505s-9.446 198.679 28.619 290.576c38.065 91.899 102.526 170.444 185.231 225.706s179.942 84.758 279.41 84.758c133.383 0 261.304-52.986 355.621-147.302s147.303-222.238 147.303-355.622z" />
<glyph unicode="&#xe927;" glyph-name="star" horiz-adv-x="983" d="M530.948 740.857l79.544-160.44c5.98-12.083 17.531-20.44 30.925-22.365l183.62-26.539c33.669-4.874 47.108-46.162 22.737-69.837l-132.751-128.823c-9.708-9.421-14.131-22.974-11.837-36.286l30.347-176.296c6.144-35.758-31.416-63.033-63.611-46.199l-159.248 83.35c-11.96 6.267-26.214 6.267-38.134 0l-159.131-83.268c-32.236-16.876-69.92 10.445-63.735 46.285l30.355 176.128c2.294 13.312-2.132 26.866-11.84 36.286l-132.75 128.823c-24.412 23.675-10.98 64.963 22.73 69.837l183.625 26.539c13.353 1.925 24.904 10.282 30.925 22.365l79.546 160.44c16.015 32.563 62.546 32.563 78.684 0z" />
<glyph unicode="&#xe928;" glyph-name="star-1" horiz-adv-x="983" d="M530.948 740.857l79.544-160.44c5.98-12.083 17.531-20.44 30.925-22.365l183.62-26.539c33.669-4.874 47.108-46.162 22.737-69.837l-132.751-128.823c-9.708-9.421-14.131-22.974-11.837-36.286l30.347-176.296c6.144-35.758-31.416-63.033-63.611-46.199l-159.248 83.35c-11.96 6.267-26.214 6.267-38.134 0l-159.131-83.268c-32.236-16.876-69.92 10.445-63.735 46.285l30.355 176.128c2.294 13.312-2.132 26.866-11.84 36.286l-132.75 128.823c-24.412 23.675-10.98 64.963 22.73 69.837l183.625 26.539c13.353 1.925 24.904 10.282 30.925 22.365l79.546 160.44c16.015 32.563 62.546 32.563 78.684 0z" />
<glyph unicode="&#xe929;" glyph-name="reviews-arrow-left" d="M763.89 456.68c0 23.125-18.726 41.847-41.847 41.847-20.026 0-254.068 0-316.488 0l124.249 125.549-58.856 58.856-197.474-196.175c-8.21-8.168-12.274-19.145-12.274-30.119 0-10.933 4.106-21.869 12.274-30.037l197.474-196.175 58.856 58.856-124.249 125.549c62.42 0 296.462 0 316.488 0 23.122 0 41.847 18.726 41.847 41.847z" />
<glyph unicode="&#xe92a;" glyph-name="reviews-arrow-right" d="M261.2 456.68c0 23.125 18.738 41.847 41.849 41.847 20.015 0 254.068 0 316.485 0l-124.249 125.549 58.86 58.856 197.472-196.175c8.212-8.168 12.274-19.145 12.274-30.119 0-10.933-4.106-21.869-12.274-30.037l-197.472-196.175-58.86 58.856 124.249 125.549c-62.416 0-296.469 0-316.485 0-23.111 0-41.849 18.726-41.849 41.847z" />
<glyph unicode="&#xea92;" glyph-name="instagram" d="M512 867.8c136.8 0 153-0.6 206.8-3 50-2.2 77-10.6 95-17.6 23.8-9.2 41-20.4 58.8-38.2 18-18 29-35 38.4-58.8 7-18 15.4-45.2 17.6-95 2.4-54 3-70.2 3-206.8s-0.6-153-3-206.8c-2.2-50-10.6-77-17.6-95-9.2-23.8-20.4-41-38.2-58.8-18-18-35-29-58.8-38.4-18-7-45.2-15.4-95-17.6-54-2.4-70.2-3-206.8-3s-153 0.6-206.8 3c-50 2.2-77 10.6-95 17.6-23.8 9.2-41 20.4-58.8 38.2-18 18-29 35-38.4 58.8-7 18-15.4 45.2-17.6 95-2.4 54-3 70.2-3 206.8s0.6 153 3 206.8c2.2 50 10.6 77 17.6 95 9.2 23.8 20.4 41 38.2 58.8 18 18 35 29 58.8 38.4 18 7 45.2 15.4 95 17.6 53.8 2.4 70 3 206.8 3zM512 960c-139 0-156.4-0.6-211-3-54.4-2.4-91.8-11.2-124.2-23.8-33.8-13.2-62.4-30.6-90.8-59.2-28.6-28.4-46-57-59.2-90.6-12.6-32.6-21.4-69.8-23.8-124.2-2.4-54.8-3-72.2-3-211.2s0.6-156.4 3-211c2.4-54.4 11.2-91.8 23.8-124.2 13.2-33.8 30.6-62.4 59.2-90.8 28.4-28.4 57-46 90.6-59 32.6-12.6 69.8-21.4 124.2-23.8 54.6-2.4 72-3 211-3s156.4 0.6 211 3c54.4 2.4 91.8 11.2 124.2 23.8 33.6 13 62.2 30.6 90.6 59s46 57 59 90.6c12.6 32.6 21.4 69.8 23.8 124.2 2.4 54.6 3 72 3 211s-0.6 156.4-3 211c-2.4 54.4-11.2 91.8-23.8 124.2-12.6 34-30 62.6-58.6 91-28.4 28.4-57 46-90.6 59-32.6 12.6-69.8 21.4-124.2 23.8-54.8 2.6-72.2 3.2-211.2 3.2v0zM512 711c-145.2 0-263-117.8-263-263s117.8-263 263-263 263 117.8 263 263c0 145.2-117.8 263-263 263zM512 277.4c-94.2 0-170.6 76.4-170.6 170.6s76.4 170.6 170.6 170.6c94.2 0 170.6-76.4 170.6-170.6s-76.4-170.6-170.6-170.6zM846.8 721.4c0-33.91-27.49-61.4-61.4-61.4s-61.4 27.49-61.4 61.4c0 33.91 27.49 61.4 61.4 61.4s61.4-27.49 61.4-61.4z" />
<glyph unicode="" glyph-name="instagram" d="M512 867.8c136.8 0 153-0.6 206.8-3 50-2.2 77-10.6 95-17.6 23.8-9.2 41-20.4 58.8-38.2 18-18 29-35 38.4-58.8 7-18 15.4-45.2 17.6-95 2.4-54 3-70.2 3-206.8s-0.6-153-3-206.8c-2.2-50-10.6-77-17.6-95-9.2-23.8-20.4-41-38.2-58.8-18-18-35-29-58.8-38.4-18-7-45.2-15.4-95-17.6-54-2.4-70.2-3-206.8-3s-153 0.6-206.8 3c-50 2.2-77 10.6-95 17.6-23.8 9.2-41 20.4-58.8 38.2-18 18-29 35-38.4 58.8-7 18-15.4 45.2-17.6 95-2.4 54-3 70.2-3 206.8s0.6 153 3 206.8c2.2 50 10.6 77 17.6 95 9.2 23.8 20.4 41 38.2 58.8 18 18 35 29 58.8 38.4 18 7 45.2 15.4 95 17.6 53.8 2.4 70 3 206.8 3zM512 960c-139 0-156.4-0.6-211-3-54.4-2.4-91.8-11.2-124.2-23.8-33.8-13.2-62.4-30.6-90.8-59.2-28.6-28.4-46-57-59.2-90.6-12.6-32.6-21.4-69.8-23.8-124.2-2.4-54.8-3-72.2-3-211.2s0.6-156.4 3-211c2.4-54.4 11.2-91.8 23.8-124.2 13.2-33.8 30.6-62.4 59.2-90.8 28.4-28.4 57-46 90.6-59 32.6-12.6 69.8-21.4 124.2-23.8 54.6-2.4 72-3 211-3s156.4 0.6 211 3c54.4 2.4 91.8 11.2 124.2 23.8 33.6 13 62.2 30.6 90.6 59s46 57 59 90.6c12.6 32.6 21.4 69.8 23.8 124.2 2.4 54.6 3 72 3 211s-0.6 156.4-3 211c-2.4 54.4-11.2 91.8-23.8 124.2-12.6 34-30 62.6-58.6 91-28.4 28.4-57 46-90.6 59-32.6 12.6-69.8 21.4-124.2 23.8-54.8 2.6-72.2 3.2-211.2 3.2v0zM512 711c-145.2 0-263-117.8-263-263s117.8-263 263-263 263 117.8 263 263c0 145.2-117.8 263-263 263zM512 277.4c-94.2 0-170.6 76.4-170.6 170.6s76.4 170.6 170.6 170.6c94.2 0 170.6-76.4 170.6-170.6s-76.4-170.6-170.6-170.6zM846.8 721.4c0-33.91-27.49-61.4-61.4-61.4s-61.4 27.49-61.4 61.4c0 33.91 27.49 61.4 61.4 61.4s61.4-27.49 61.4-61.4z" />
<glyph unicode="instagram" glyph-name="instagram" d="M512 867.8c136.8 0 153-0.6 206.8-3 50-2.2 77-10.6 95-17.6 23.8-9.2 41-20.4 58.8-38.2 18-18 29-35 38.4-58.8 7-18 15.4-45.2 17.6-95 2.4-54 3-70.2 3-206.8s-0.6-153-3-206.8c-2.2-50-10.6-77-17.6-95-9.2-23.8-20.4-41-38.2-58.8-18-18-35-29-58.8-38.4-18-7-45.2-15.4-95-17.6-54-2.4-70.2-3-206.8-3s-153 0.6-206.8 3c-50 2.2-77 10.6-95 17.6-23.8 9.2-41 20.4-58.8 38.2-18 18-29 35-38.4 58.8-7 18-15.4 45.2-17.6 95-2.4 54-3 70.2-3 206.8s0.6 153 3 206.8c2.2 50 10.6 77 17.6 95 9.2 23.8 20.4 41 38.2 58.8 18 18 35 29 58.8 38.4 18 7 45.2 15.4 95 17.6 53.8 2.4 70 3 206.8 3zM512 960c-139 0-156.4-0.6-211-3-54.4-2.4-91.8-11.2-124.2-23.8-33.8-13.2-62.4-30.6-90.8-59.2-28.6-28.4-46-57-59.2-90.6-12.6-32.6-21.4-69.8-23.8-124.2-2.4-54.8-3-72.2-3-211.2s0.6-156.4 3-211c2.4-54.4 11.2-91.8 23.8-124.2 13.2-33.8 30.6-62.4 59.2-90.8 28.4-28.4 57-46 90.6-59 32.6-12.6 69.8-21.4 124.2-23.8 54.6-2.4 72-3 211-3s156.4 0.6 211 3c54.4 2.4 91.8 11.2 124.2 23.8 33.6 13 62.2 30.6 90.6 59s46 57 59 90.6c12.6 32.6 21.4 69.8 23.8 124.2 2.4 54.6 3 72 3 211s-0.6 156.4-3 211c-2.4 54.4-11.2 91.8-23.8 124.2-12.6 34-30 62.6-58.6 91-28.4 28.4-57 46-90.6 59-32.6 12.6-69.8 21.4-124.2 23.8-54.8 2.6-72.2 3.2-211.2 3.2v0zM512 711c-145.2 0-263-117.8-263-263s117.8-263 263-263 263 117.8 263 263c0 145.2-117.8 263-263 263zM512 277.4c-94.2 0-170.6 76.4-170.6 170.6s76.4 170.6 170.6 170.6c94.2 0 170.6-76.4 170.6-170.6s-76.4-170.6-170.6-170.6zM846.8 721.4c0-33.91-27.49-61.4-61.4-61.4s-61.4 27.49-61.4 61.4c0 33.91 27.49 61.4 61.4 61.4s61.4-27.49 61.4-61.4z" />
<glyph unicode="brand12" glyph-name="instagram" d="M512 867.8c136.8 0 153-0.6 206.8-3 50-2.2 77-10.6 95-17.6 23.8-9.2 41-20.4 58.8-38.2 18-18 29-35 38.4-58.8 7-18 15.4-45.2 17.6-95 2.4-54 3-70.2 3-206.8s-0.6-153-3-206.8c-2.2-50-10.6-77-17.6-95-9.2-23.8-20.4-41-38.2-58.8-18-18-35-29-58.8-38.4-18-7-45.2-15.4-95-17.6-54-2.4-70.2-3-206.8-3s-153 0.6-206.8 3c-50 2.2-77 10.6-95 17.6-23.8 9.2-41 20.4-58.8 38.2-18 18-29 35-38.4 58.8-7 18-15.4 45.2-17.6 95-2.4 54-3 70.2-3 206.8s0.6 153 3 206.8c2.2 50 10.6 77 17.6 95 9.2 23.8 20.4 41 38.2 58.8 18 18 35 29 58.8 38.4 18 7 45.2 15.4 95 17.6 53.8 2.4 70 3 206.8 3zM512 960c-139 0-156.4-0.6-211-3-54.4-2.4-91.8-11.2-124.2-23.8-33.8-13.2-62.4-30.6-90.8-59.2-28.6-28.4-46-57-59.2-90.6-12.6-32.6-21.4-69.8-23.8-124.2-2.4-54.8-3-72.2-3-211.2s0.6-156.4 3-211c2.4-54.4 11.2-91.8 23.8-124.2 13.2-33.8 30.6-62.4 59.2-90.8 28.4-28.4 57-46 90.6-59 32.6-12.6 69.8-21.4 124.2-23.8 54.6-2.4 72-3 211-3s156.4 0.6 211 3c54.4 2.4 91.8 11.2 124.2 23.8 33.6 13 62.2 30.6 90.6 59s46 57 59 90.6c12.6 32.6 21.4 69.8 23.8 124.2 2.4 54.6 3 72 3 211s-0.6 156.4-3 211c-2.4 54.4-11.2 91.8-23.8 124.2-12.6 34-30 62.6-58.6 91-28.4 28.4-57 46-90.6 59-32.6 12.6-69.8 21.4-124.2 23.8-54.8 2.6-72.2 3.2-211.2 3.2v0zM512 711c-145.2 0-263-117.8-263-263s117.8-263 263-263 263 117.8 263 263c0 145.2-117.8 263-263 263zM512 277.4c-94.2 0-170.6 76.4-170.6 170.6s76.4 170.6 170.6 170.6c94.2 0 170.6-76.4 170.6-170.6s-76.4-170.6-170.6-170.6zM846.8 721.4c0-33.91-27.49-61.4-61.4-61.4s-61.4 27.49-61.4 61.4c0 33.91 27.49 61.4 61.4 61.4s61.4-27.49 61.4-61.4z" />
</font>
</defs>
</svg>
