<svg width="32" height="32" viewBox="0 0 32 32" fill="none" xmlns="http://www.w3.org/2000/svg">
<g id="cloud-check-fill">
<path id="Vector" d="M16.0189 5.33231C11.7975 5.36564 8.03221 8.23766 7.01888 12.7483C4.43088 13.8376 2.68555 16.2576 2.68555 19.1656C2.68555 23.1789 5.85356 26.6656 9.76823 26.6656H22.6855C26.3309 26.6656 29.3522 24.0216 29.3522 20.6656C29.3522 18.2456 27.6842 16.2003 25.3522 15.2496C25.3549 15.0109 25.3522 14.7003 25.3522 14.6656C25.3922 9.55097 21.0735 5.29231 16.0189 5.33231ZM18.6855 14.6656C19.0269 14.6656 19.3829 14.7803 19.6442 15.0403C20.1642 15.5616 20.1642 16.4363 19.6442 16.9576L15.6442 20.9576C15.1229 21.4776 14.2482 21.4776 13.7269 20.9576L11.0602 18.2909C10.5402 17.7696 10.5402 16.895 11.0602 16.3736C11.5816 15.8536 12.4562 15.8536 12.9775 16.3736L14.6855 18.0816L17.7269 15.0403C17.9882 14.7803 18.3442 14.6656 18.6855 14.6656Z" fill="url(#paint0_linear_377_1420)"/>
</g>
<defs>
<linearGradient id="paint0_linear_377_1420" x1="16.0189" y1="5.33204" x2="30.0039" y2="5.73855" gradientUnits="userSpaceOnUse">
<stop stop-color="#44CAFF"/>
<stop offset="1" stop-color="#10D7F2"/>
</linearGradient>
</defs>
</svg>
