<svg width="32" height="32" viewBox="0 0 32 32" fill="none" xmlns="http://www.w3.org/2000/svg">
<g id="gear-fill">
<path id="Vector" d="M11.9561 3.27437C10.0654 3.87303 8.43473 4.85305 6.9974 6.19038C6.5534 6.60505 6.4174 7.28104 6.7054 7.81571C7.7734 9.79037 6.65605 11.9024 4.24805 12.0237C3.65738 12.0544 3.13606 12.4904 2.9974 13.065C2.75873 14.0584 2.66406 14.8904 2.66406 15.9824C2.66406 16.8984 2.76272 17.9344 2.95605 18.857C3.07605 19.433 3.5774 19.8477 4.16406 19.8997C6.58806 20.109 7.78807 21.957 6.7054 24.3157C6.4654 24.8397 6.57473 25.4664 6.9974 25.857C8.4134 27.1677 10.0401 28.0904 11.9561 28.6904C12.5027 28.8624 13.1201 28.6557 13.4561 28.1904C14.9387 26.1397 17.0894 26.1317 18.4974 28.1904C18.8294 28.6757 19.4374 28.909 19.9974 28.7317C21.8467 28.1504 23.5694 27.1597 24.9974 25.857C25.4374 25.457 25.5534 24.8077 25.2894 24.2744C24.1801 22.0357 25.4561 19.9797 27.7467 19.941C28.3547 19.9304 28.8961 19.5304 29.0387 18.941C29.2694 17.985 29.3307 17.1517 29.3307 15.9824C29.3307 14.977 29.2121 13.9864 28.9974 13.0237C28.8614 12.4157 28.3294 11.9837 27.7054 11.9824C25.4507 11.9784 24.1867 9.76237 25.2894 7.81571C25.5961 7.27304 25.5001 6.60905 25.0387 6.19038C23.5854 4.87038 21.8134 3.8397 19.9561 3.27437C19.3854 3.10103 18.7787 3.31438 18.4561 3.81571C17.1681 5.81571 14.7627 5.85172 13.4974 3.85705C13.1734 3.34638 12.5321 3.09037 11.9561 3.27437ZM15.9974 10.649C18.9427 10.649 21.3307 13.037 21.3307 15.9824C21.3307 18.9277 18.9427 21.3157 15.9974 21.3157C13.0521 21.3157 10.6641 18.9277 10.6641 15.9824C10.6641 13.037 13.0521 10.649 15.9974 10.649Z" fill="white"/>
</g>
</svg>
