<svg width="32" height="32" viewBox="0 0 32 32" fill="none" xmlns="http://www.w3.org/2000/svg">
<g id="globe-fill">
<path id="Vector" d="M15.9971 2.6875C14.2731 2.6875 12.3291 7.95416 12.0798 14.6875H19.9144C19.6651 7.9555 17.7211 2.6875 15.9971 2.6875ZM11.7891 3.35417C6.87306 4.99283 3.17174 9.48883 2.70508 14.6875H9.41309C9.56109 10.1022 10.3891 6.0355 11.7891 3.35417ZM20.2051 3.35417C21.6051 6.0355 22.4331 10.1022 22.5811 14.6875H29.2477C28.7651 9.4275 25.1691 5.02217 20.2051 3.35417ZM2.74642 17.3542C3.22642 22.6968 6.93574 27.0742 11.8304 28.6875C10.4317 26.0062 9.56109 21.9395 9.41309 17.3542H2.74642ZM12.0798 17.3542C12.3291 24.0862 14.2731 29.3542 15.9971 29.3542C17.7211 29.3542 19.6651 24.0875 19.9144 17.3542H12.0798ZM22.5811 17.3542C22.4331 21.9395 21.5624 26.0062 20.1637 28.6875C25.1917 26.9768 28.7571 22.5275 29.2477 17.3542H22.5811Z" fill="url(#paint0_linear_377_753)"/>
</g>
<defs>
<linearGradient id="paint0_linear_377_753" x1="15.9764" y1="2.68751" x2="29.9006" y2="3.0098" gradientUnits="userSpaceOnUse">
<stop stop-color="#44CAFF"/>
<stop offset="1" stop-color="#10D7F2"/>
</linearGradient>
</defs>
</svg>
