<svg width="32" height="32" viewBox="0 0 32 32" fill="none" xmlns="http://www.w3.org/2000/svg">
<g id="puzzle-fill">
<path id="Vector" d="M17.3522 2.60547C15.8794 2.60547 14.6855 3.7988 14.6855 5.27214V6.60547H12.0189C9.13235 6.61214 6.69288 8.94414 6.68555 11.9388V14.6055H5.35221C3.87941 14.6055 2.68555 15.7988 2.68555 17.2721C2.68555 18.7455 3.87941 19.9388 5.35221 19.9388H6.68555V22.6055C6.69181 25.5175 9.04955 27.9321 12.0189 27.9388H14.6855V26.6055C14.6855 25.1321 15.8794 23.9388 17.3522 23.9388C18.825 23.9388 20.0189 25.1321 20.0189 26.6055V27.9388C20.0189 27.9388 21.3522 27.9308 22.6855 27.9388C25.6933 27.9548 28.0102 25.5228 28.0189 22.6055V19.9388H26.6855C25.2127 19.9388 24.0189 18.7455 24.0189 17.2721C24.0189 15.7988 25.2127 14.6055 26.6855 14.6055H28.0189V11.9388C28.0322 8.96014 25.5777 6.61347 22.6855 6.60547C20.0189 6.59747 20.0189 6.60547 20.0189 6.60547V5.27214C20.0189 3.7988 18.825 2.60547 17.3522 2.60547Z" fill="url(#paint0_linear_377_1249)"/>
</g>
<defs>
<linearGradient id="paint0_linear_377_1249" x1="15.3522" y1="2.60548" x2="28.642" y2="2.91452" gradientUnits="userSpaceOnUse">
<stop stop-color="#44CAFF"/>
<stop offset="1" stop-color="#10D7F2"/>
</linearGradient>
</defs>
</svg>
