<svg width="32" height="32" viewBox="0 0 32 32" fill="none" xmlns="http://www.w3.org/2000/svg">
<g id="telephone-fill">
<path id="Vector" d="M9.23893 3.90625C6.98827 3.90625 3.98828 6.90624 3.98828 9.1569C3.98828 12.0556 6.98828 17.4063 9.98828 20.4063C10.3109 20.7289 11.1656 21.5836 11.4883 21.9063C14.4883 24.9063 19.839 27.9063 22.7376 27.9063C24.9883 27.9063 27.9883 24.9063 27.9883 22.6556C27.9883 20.4063 24.9883 17.4063 22.7376 17.4063C21.9883 17.4063 19.2749 18.9583 18.9883 18.9063C16.5963 18.4743 13.4883 15.2889 12.9883 12.9063C12.9189 12.5743 14.4883 9.90624 14.4883 9.1569C14.4883 6.90624 11.4883 3.90625 9.23893 3.90625Z" fill="url(#paint0_linear_377_1230)"/>
</g>
<defs>
<linearGradient id="paint0_linear_377_1230" x1="15.9883" y1="3.90626" x2="28.5786" y2="4.19904" gradientUnits="userSpaceOnUse">
<stop stop-color="#44CAFF"/>
<stop offset="1" stop-color="#10D7F2"/>
</linearGradient>
</defs>
</svg>
